<svg width="410" height="404" viewBox="0 0 410 404" fill="none" xmlns="http://www.w3.org/2000/svg">
  <g clip-path="url(#clip0_1512_132)">
    <path d="M399.5 41.5L205 399.5L10.5 41.5H399.5Z" fill="url(#paint0_linear_1512_132)"/>
    <path d="M205 399.5L10.5 41.5H399.5L205 399.5Z" fill="url(#paint1_linear_1512_132)"/>
    <path d="M205 399.5L10.5 41.5H399.5L205 399.5Z" fill="url(#paint2_linear_1512_132)"/>
    <path d="M205 399.5L10.5 41.5H399.5L205 399.5Z" fill="url(#paint3_linear_1512_132)"/>
    <path d="M205 399.5L10.5 41.5H399.5L205 399.5Z" fill="url(#paint4_linear_1512_132)"/>
    <path d="M205 399.5L10.5 41.5H399.5L205 399.5Z" fill="url(#paint5_linear_1512_132)"/>
    <path d="M205 399.5L10.5 41.5H399.5L205 399.5Z" fill="url(#paint6_linear_1512_132)"/>
    <path d="M205 399.5L10.5 41.5H399.5L205 399.5Z" fill="url(#paint7_linear_1512_132)"/>
    <path d="M205 399.5L10.5 41.5H399.5L205 399.5Z" fill="url(#paint8_linear_1512_132)"/>
    <path d="M205 399.5L10.5 41.5H399.5L205 399.5Z" fill="url(#paint9_linear_1512_132)"/>
    <path d="M205 399.5L10.5 41.5H399.5L205 399.5Z" fill="url(#paint10_linear_1512_132)"/>
    <path d="M205 399.5L10.5 41.5H399.5L205 399.5Z" fill="url(#paint11_linear_1512_132)"/>
    <path d="M205 399.5L10.5 41.5H399.5L205 399.5Z" fill="url(#paint12_linear_1512_132)"/>
    <path d="M205 399.5L10.5 41.5H399.5L205 399.5Z" fill="url(#paint13_linear_1512_132)"/>
    <path d="M205 399.5L10.5 41.5H399.5L205 399.5Z" fill="url(#paint14_linear_1512_132)"/>
    <path d="M205 399.5L10.5 41.5H399.5L205 399.5Z" fill="url(#paint15_linear_1512_132)"/>
    <path d="M205 399.5L10.5 41.5H399.5L205 399.5Z" fill="url(#paint16_linear_1512_132)"/>
    <path d="M205 399.5L10.5 41.5H399.5L205 399.5Z" fill="url(#paint17_linear_1512_132)"/>
    <path d="M205 399.5L10.5 41.5H399.5L205 399.5Z" fill="url(#paint18_linear_1512_132)"/>
    <path d="M205 399.5L10.5 41.5H399.5L205 399.5Z" fill="url(#paint19_linear_1512_132)"/>
  </g>
  <defs>
    <linearGradient id="paint0_linear_1512_132" x1="205" y1="41.5" x2="205" y2="399.5" gradientUnits="userSpaceOnUse">
      <stop stop-color="#41D1FF"/>
      <stop offset="1" stop-color="#BD34FE"/>
    </linearGradient>
    <linearGradient id="paint1_linear_1512_132" x1="205" y1="41.5" x2="205" y2="399.5" gradientUnits="userSpaceOnUse">
      <stop stop-color="#FFEA83"/>
      <stop offset="0.083" stop-color="#FFDD35"/>
      <stop offset="1" stop-color="#FFA800"/>
    </linearGradient>
    <linearGradient id="paint2_linear_1512_132" x1="205" y1="41.5" x2="205" y2="399.5" gradientUnits="userSpaceOnUse">
      <stop stop-color="#FFEA83"/>
      <stop offset="0.083" stop-color="#FFDD35"/>
      <stop offset="1" stop-color="#FFA800"/>
    </linearGradient>
    <linearGradient id="paint3_linear_1512_132" x1="205" y1="41.5" x2="205" y2="399.5" gradientUnits="userSpaceOnUse">
      <stop stop-color="#FFEA83"/>
      <stop offset="0.083" stop-color="#FFDD35"/>
      <stop offset="1" stop-color="#FFA800"/>
    </linearGradient>
    <linearGradient id="paint4_linear_1512_132" x1="205" y1="41.5" x2="205" y2="399.5" gradientUnits="userSpaceOnUse">
      <stop stop-color="#FFEA83"/>
      <stop offset="0.083" stop-color="#FFDD35"/>
      <stop offset="1" stop-color="#FFA800"/>
    </linearGradient>
    <linearGradient id="paint5_linear_1512_132" x1="205" y1="41.5" x2="205" y2="399.5" gradientUnits="userSpaceOnUse">
      <stop stop-color="#FFEA83"/>
      <stop offset="0.083" stop-color="#FFDD35"/>
      <stop offset="1" stop-color="#FFA800"/>
    </linearGradient>
    <linearGradient id="paint6_linear_1512_132" x1="205" y1="41.5" x2="205" y2="399.5" gradientUnits="userSpaceOnUse">
      <stop stop-color="#FFEA83"/>
      <stop offset="0.083" stop-color="#FFDD35"/>
      <stop offset="1" stop-color="#FFA800"/>
    </linearGradient>
    <linearGradient id="paint7_linear_1512_132" x1="205" y1="41.5" x2="205" y2="399.5" gradientUnits="userSpaceOnUse">
      <stop stop-color="#FFEA83"/>
      <stop offset="0.083" stop-color="#FFDD35"/>
      <stop offset="1" stop-color="#FFA800"/>
    </linearGradient>
    <linearGradient id="paint8_linear_1512_132" x1="205" y1="41.5" x2="205" y2="399.5" gradientUnits="userSpaceOnUse">
      <stop stop-color="#FFEA83"/>
      <stop offset="0.083" stop-color="#FFDD35"/>
      <stop offset="1" stop-color="#FFA800"/>
    </linearGradient>
    <linearGradient id="paint9_linear_1512_132" x1="205" y1="41.5" x2="205" y2="399.5" gradientUnits="userSpaceOnUse">
      <stop stop-color="#FFEA83"/>
      <stop offset="0.083" stop-color="#FFDD35"/>
      <stop offset="1" stop-color="#FFA800"/>
    </linearGradient>
    <linearGradient id="paint10_linear_1512_132" x1="205" y1="41.5" x2="205" y2="399.5" gradientUnits="userSpaceOnUse">
      <stop stop-color="#FFEA83"/>
      <stop offset="0.083" stop-color="#FFDD35"/>
      <stop offset="1" stop-color="#FFA800"/>
    </linearGradient>
    <linearGradient id="paint11_linear_1512_132" x1="205" y1="41.5" x2="205" y2="399.5" gradientUnits="userSpaceOnUse">
      <stop stop-color="#FFEA83"/>
      <stop offset="0.083" stop-color="#FFDD35"/>
      <stop offset="1" stop-color="#FFA800"/>
    </linearGradient>
    <linearGradient id="paint12_linear_1512_132" x1="205" y1="41.5" x2="205" y2="399.5" gradientUnits="userSpaceOnUse">
      <stop stop-color="#FFEA83"/>
      <stop offset="0.083" stop-color="#FFDD35"/>
      <stop offset="1" stop-color="#FFA800"/>
    </linearGradient>
    <linearGradient id="paint13_linear_1512_132" x1="205" y1="41.5" x2="205" y2="399.5" gradientUnits="userSpaceOnUse">
      <stop stop-color="#FFEA83"/>
      <stop offset="0.083" stop-color="#FFDD35"/>
      <stop offset="1" stop-color="#FFA800"/>
    </linearGradient>
    <linearGradient id="paint14_linear_1512_132" x1="205" y1="41.5" x2="205" y2="399.5" gradientUnits="userSpaceOnUse">
      <stop stop-color="#FFEA83"/>
      <stop offset="0.083" stop-color="#FFDD35"/>
      <stop offset="1" stop-color="#FFA800"/>
    </linearGradient>
    <linearGradient id="paint15_linear_1512_132" x1="205" y1="41.5" x2="205" y2="399.5" gradientUnits="userSpaceOnUse">
      <stop stop-color="#FFEA83"/>
      <stop offset="0.083" stop-color="#FFDD35"/>
      <stop offset="1" stop-color="#FFA800"/>
    </linearGradient>
    <linearGradient id="paint16_linear_1512_132" x1="205" y1="41.5" x2="205" y2="399.5" gradientUnits="userSpaceOnUse">
      <stop stop-color="#FFEA83"/>
      <stop offset="0.083" stop-color="#FFDD35"/>
      <stop offset="1" stop-color="#FFA800"/>
    </linearGradient>
    <linearGradient id="paint17_linear_1512_132" x1="205" y1="41.5" x2="205" y2="399.5" gradientUnits="userSpaceOnUse">
      <stop stop-color="#FFEA83"/>
      <stop offset="0.083" stop-color="#FFDD35"/>
      <stop offset="1" stop-color="#FFA800"/>
    </linearGradient>
    <linearGradient id="paint18_linear_1512_132" x1="205" y1="41.5" x2="205" y2="399.5" gradientUnits="userSpaceOnUse">
      <stop stop-color="#FFEA83"/>
      <stop offset="0.083" stop-color="#FFDD35"/>
      <stop offset="1" stop-color="#FFA800"/>
    </linearGradient>
    <linearGradient id="paint19_linear_1512_132" x1="205" y1="41.5" x2="205" y2="399.5" gradientUnits="userSpaceOnUse">
      <stop stop-color="#FFEA83"/>
      <stop offset="0.083" stop-color="#FFDD35"/>
      <stop offset="1" stop-color="#FFA800"/>
    </linearGradient>
    <clipPath id="clip0_1512_132">
      <rect width="410" height="404" fill="white"/>
    </clipPath>
  </defs>
</svg> 